# xmcd CD database file
#
# Track frame offsets:
#	183
#	9300
#	23135
#	37035
#	51473
#	65755
#	79978
#	94393
#	108593
#	123105
#	137708
#	149640
#	160220
#	175030
#	187250
#	200533
#	214370
#	226258
#	239495
#	252243
#	265920
#	280720
#
# Disc length: 3918 seconds
#
# Revision: 4
# Processed by: cddbd v1.4PL0 Copyright (c) Steve Scherf et al.
# Submitted via: CDex 1.50
#
DISCID=500f4c16
DTITLE=Art Tatum - Complete Decca And Brunswick Recordings 1932 - 1941 CD1
DYEAR=1932
DGENRE=Jazz
TTITLE0=Tiger Rag
TTITLE1=Strange As Is Seems
TTITLE2=Strange As Is Seems
TTITLE3=I'll Never Be The Same
TTITLE4=I'll Never Be The Same
TTITLE5=You Gave Me Everything But Love
TTITLE6=You Gave Me Everything But Love
TTITLE7=This Time It's Love
TTITLE8=This Time It's Love
TTITLE9=Tea For Two
TTITLE10=St. Louis Blues
TTITLE11=Tiger Rag
TTITLE12=Sophisticated Lady
TTITLE13=Moonglow
TTITLE14=I Would Do Anything For You
TTITLE15=When A Woman Loves A Man
TTITLE16=Emaline
TTITLE17=Love Me
TTITLE18=Cocktails For Two
TTITLE19=After You've Gone
TTITLE20=Stardust
TTITLE21=Ill Wind
EXTD=YEAR: 1932
EXTT0=
EXTT1=
EXTT2=
EXTT3=
EXTT4=
EXTT5=
EXTT6=
EXTT7=
EXTT8=
EXTT9=
EXTT10=
EXTT11=
EXTT12=
EXTT13=
EXTT14=
EXTT15=
EXTT16=
EXTT17=
EXTT18=
EXTT19=
EXTT20=
EXTT21=
PLAYORDER=
